<svg xmlns="http://www.w3.org/2000/svg">

  <!-- streetcar -->
  <symbol id="streetcar" viewBox="0 0 24 24">
    <path d="M20,4.5c-0.4-0.7-2.8-1.3-5-1.5V2.9C15,2.4,14.6,2,14.1,2H13V0h-1v2h-1.1C10.4,2,10,2.4,10,2.9V3C7.8,3.2,5.4,3.8,5,4.5
      L4,11v10l1,2h1v1h1v-1h11v1h1v-1h1l1-2V11L20,4.5z M19.1,7.6l0.4,4.7c0,0.4-0.3,0.7-0.7,0.7H13V7h5.4C18.7,7,19,7.3,19.1,7.6z
      M19,16.5c0,0.3-0.2,0.5-0.5,0.5S18,16.8,18,16.5c0-0.3,0.2-0.5,0.5-0.5S19,16.2,19,16.5z M12.5,15c0.8,0,1.5,0.7,1.5,1.5
      c0,0.8-0.7,1.5-1.5,1.5S11,17.3,11,16.5C11,15.7,11.7,15,12.5,15z M7,5.3C7,5.1,7.1,5,7.3,5h10.5C17.9,5,18,5.1,18,5.3v0.5
      C18,5.9,17.9,6,17.7,6H7.3C7.1,6,7,5.9,7,5.7V5.3z M5.9,7.6C6,7.3,6.3,7,6.6,7H12v6H6c-0.4,0-0.7-0.3-0.7-0.7L5.9,7.6z M6.5,16
      C6.8,16,7,16.2,7,16.5C7,16.8,6.8,17,6.5,17S6,16.8,6,16.5C6,16.2,6.2,16,6.5,16z M19.5,22h-14L5,21h15L19.5,22z"/>
  </symbol>
  
  <!-- car -->
  <symbol id="car" viewBox="0 0 24 24">
    <path d="M21.5,10l-1.8-5.2c-0.4-1.2-1.5-1.9-2.7-1.9H7c-1.2,0-2.3,0.8-2.7,1.9L2.5,10C1.1,10.2,0,11.4,0,12.8V19h1v1.5
      C1,21.3,1.7,22,2.5,22h1C4.3,22,5,21.3,5,20.5V19h4v1h6v-1h4v1.5c0,0.8,0.7,1.5,1.5,1.5h1c0.8,0,1.5-0.7,1.5-1.5V19h1v-6.2
      C24,11.4,22.9,10.2,21.5,10z M3,15.5c-0.8,0-1.5-0.7-1.5-1.5s0.7-1.5,1.5-1.5s1.5,0.7,1.5,1.5S3.8,15.5,3,15.5z M14.5,18h-1v-6h1
      V18z M12.5,18h-1v-6h1V18z M10.5,18h-1v-6h1V18z M8.5,18h-1v-4c0-0.7,0.4-1.4,1-1.7V18z M16.5,18h-1v-5.7c0.6,0.3,1,1,1,1.7V18z
       M14.1,10c0.2-0.6,0.8-1,1.4-1s1.2,0.4,1.4,1H14.1z M17.9,10c-0.2-1.1-1.2-2-2.4-2s-2.2,0.8-2.4,2H4.6l1.6-4.5
      C6.3,5.1,6.7,4.9,7,4.9H17c0.4,0,0.7,0.2,0.8,0.6l1.6,4.5H17.9z M21,15.5c-0.8,0-1.5-0.7-1.5-1.5s0.7-1.5,1.5-1.5s1.5,0.7,1.5,1.5
      S21.8,15.5,21,15.5z"/>
  </symbol>  
  
  <!-- bike -->
  <symbol id="bike" viewBox="0 0 24 24">
    <path d="M5,12c-2.8,0-5,2.2-5,5c0,2.8,2.2,5,5,5c2.8,0,5-2.2,5-5C10,14.2,7.8,12,5,12z M5,21c-2.2,0-4-1.8-4-4s1.8-4,4-4
      s4,1.8,4,4S7.2,21,5,21z"/>
    <path d="M19,12c-2.8,0-5,2.2-5,5c0,2.8,2.2,5,5,5c2.8,0,5-2.2,5-5C24,14.2,21.8,12,19,12z M19,21c-2.2,0-4-1.8-4-4s1.8-4,4-4
      s4,1.8,4,4S21.2,21,19,21z"/>
    <path d="M14,10h2c0.6,0,1-0.4,1-1s-0.4-1-1-1h-1.5l-1.7-2.6c-0.2-0.3-0.6-0.5-1.1-0.5S10.8,5,10.4,5.4l-3,3
      C7.1,8.7,6.9,9.1,6.9,9.8c0,0.5,0.2,0.9,0.5,1.1l3.6,2.7V18c0,0.6,0.4,1,1,1s1-0.4,1-1v-5c0,0,0,0,0-0.1c0-0.1,0-0.1,0-0.2
      c0-0.1,0-0.1-0.1-0.2c0-0.1-0.1-0.1-0.1-0.2c0-0.1-0.1-0.1-0.1-0.2c0,0,0,0,0-0.1l-2.7-2L12.1,8l1,1.6c0,0,0.1,0.1,0.1,0.1
      c0,0,0,0,0,0c0.1,0.1,0.2,0.1,0.3,0.2c0,0,0,0,0.1,0C13.8,10,13.9,10,14,10C14,10,14,10,14,10z"/>
    <circle cx="14.2" cy="3.8" r="1.8"/>
  </symbol>  
  
  <!-- walk -->
  <symbol id="walk" viewBox="0 0 24 24">
    <circle cx="11" cy="2" r="2"/>
    <path d="M17.2,12.6c0.4,0.4,1,0.5,1.4,0.1c0.4-0.4,0.5-1,0.1-1.4l-5-6C13.6,5.1,13.3,5,13,5H9C8.7,5,8.4,5.2,8.2,5.4l-2,3
      C6.1,8.6,6,8.8,6,9v4c0,0.6,0.4,1,1,1s1-0.4,1-1V9.3l1-1.5V13c0,0,0,0,0,0.1c0,0.2,0.1,0.3,0.2,0.5l7,10c0.2,0.3,0.5,0.4,0.8,0.4
      c0.2,0,0.4-0.1,0.6-0.2c0.5-0.3,0.6-0.9,0.2-1.4L13,15.5v-8L17.2,12.6z"/>
    <path d="M6.2,22.4c-0.3,0.5-0.2,1.1,0.3,1.4C6.6,23.9,6.8,24,7,24c0.3,0,0.6-0.2,0.8-0.4l3.5-5.1l-1.2-1.7L6.2,22.4z"/>
  </symbol>
  
  <!-- calendar -->
  <symbol id="calendar" viewBox="0 0 24 24">
    <path d="M21,3h-2V2.5C19,1.1,17.9,0,16.5,0S14,1.1,14,2.5V3h-4V2.5C10,1.1,8.9,0,7.5,0S5,1.1,5,2.5V3H3C1.9,3,1,3.9,1,5v17
      c0,1.1,0.9,2,2,2h18c1.1,0,2-0.9,2-2V5C23,3.9,22.1,3,21,3z M15.5,2.5c0-0.5,0.5-1,1-1c0.6,0,1,0.5,1,1v3c0,0.6-0.5,1-1,1
      c-0.5,0-1-0.5-1-1V2.5z M6.5,2.5c0-0.5,0.5-1,1-1c0.6,0,1,0.5,1,1v3c0,0.6-0.5,1-1,1c-0.5,0-1-0.5-1-1V2.5z M21,22H3V8h18V22z"/>
  </symbol>

</svg>